<?xml version="1.0" encoding="utf-8"?>
<!-- Generator: Adobe Illustrator 22.0.1, SVG Export Plug-In . SVG Version: 6.00 Build 0)  -->
<svg version="1.1" id="Capa_1" xmlns="http://www.w3.org/2000/svg" xmlns:xlink="http://www.w3.org/1999/xlink" x="0px" y="0px"
	 viewBox="0 0 612 612" style="enable-background:new 0 0 612 612;" xml:space="preserve">
<g>
	<g>
		<polygon points="233.9,185.9 351.8,303.8 243.6,412 283.1,451.5 430.6,304 273.3,146.6 		"/>
		<path d="M0,306c0,169,137,306,306,306c169,0,306-137,306-306C612,137,475,0,306,0C137,0,0,137,0,306z M584.2,306
			c0,153.6-124.5,278.2-278.2,278.2S27.8,459.6,27.8,306S152.4,27.8,306,27.8S584.2,152.4,584.2,306z"/>
	</g>
</g>
</svg>
